PathFileType	4	(X/Y/Z)	 s10c0101.trc
DataRate	CameraRate	NumFrames	NumMarkers	Units	OrigDataRate	OrigDataStartFrame	OrigNumFrames
200	200	6	49	mm	200	1	2000
Frame#	Time	racr			lacr			c7			jug			rlel			rdr			llel			ldr			s2			lic			ric			lasi			rasi			rpsi			lpsi			rgt			lgt			rth1			rth2			rth3			rth4			rlfc			rmfc			rsh1			rsh2			rsh3			rsh4			rlmal			rmmal			rcal			rtoe			rmt5			lth1			lth2			lth4			lth3			llfc			lmfc			llmal			lcal			lmt5			lsh1			lsh2			lsh3			lsh4			ltoe			SBIKE			LBIKE			RBIKE			
		X1	Y1	Z1	X2	Y2	Z2	X3	Y3	Z3	X4	Y4	Z4	X5	Y5	Z5	X6	Y6	Z6	X7	Y7	Z7	X8	Y8	Z8	X9	Y9	Z9	X10	Y10	Z10	X11	Y11	Z11	X12	Y12	Z12	X13	Y13	Z13	X14	Y14	Z14	X15	Y15	Z15	X16	Y16	Z16	X17	Y17	Z17	X18	Y18	Z18	X19	Y19	Z19	X20	Y20	Z20	X21	Y21	Z21	X22	Y22	Z22	X23	Y23	Z23	X24	Y24	Z24	X25	Y25	Z25	X26	Y26	Z26	X27	Y27	Z27	X28	Y28	Z28	X29	Y29	Z29	X30	Y30	Z30	X31	Y31	Z31	X32	Y32	Z32	X33	Y33	Z33	X34	Y34	Z34	X35	Y35	Z35	X36	Y36	Z36	X37	Y37	Z37	X38	Y38	Z38	X39	Y39	Z39	X40	Y40	Z40	X41	Y41	Z41	X42	Y42	Z42	X43	Y43	Z43	X44	Y44	Z44	X45	Y45	Z45	X46	Y46	Z46	X47	Y47	Z47	X48	Y48	Z48	X49	Y49	Z49	
1	0.0050	402.782491	1289.869655	-21.894996	419.399130	1293.834080	-370.429186	403.313829	1355.682408	-197.003204	414.166759	1214.032971	-192.822516	494.805954	1050.408833	45.191743	644.017405	877.954296	-4.585766	510.305858	1044.408753	-441.230248	660.375216	883.318139	-368.702333	-90.951706	1111.473103	-218.562285	84.294439	1104.171994	-364.441103	86.005830	1117.445518	-68.375892	99.868906	1013.014779	-332.641538	71.666656	1034.526346	-74.447009	-44.977957	1156.974935	-161.477419	-31.076744	1158.069935	-270.489095	-45.239147	1025.128056	-17.722682	-26.717110	986.741618	-409.409023	60.290076	926.573692	2.550957	147.847302	913.820720	-6.795825	214.079039	859.623312	-8.856251	160.860721	947.847739	-14.990230	315.651346	810.437316	-25.638224	312.477222	801.906982	-143.596900	261.086894	708.310793	-3.368204	263.242063	619.894662	-17.087973	221.838214	544.616311	-26.348719	294.113620	616.743067	-40.716973	197.548619	443.774658	-46.975303	220.306720	467.110817	-125.095919	148.295269	412.895195	-94.460608	389.705658	426.957076	-80.636571	310.201946	388.829984	-21.369663	42.596640	874.210339	-423.887490	115.681209	828.925608	-411.708502	141.021386	853.536275	-402.207921	157.072869	750.547906	-406.416301	226.217629	664.420238	-386.910017	225.967935	658.724917	-267.946532	-21.025630	383.143990	-379.897738	-82.927310	385.087133	-338.851226	34.833349	251.868675	-397.738118	135.516521	583.037146	-415.592060	108.278316	500.900047	-400.363438	39.595807	443.245751	-397.001424	131.313964	487.410976	-373.243552	116.639216	230.647251	-338.235344	-204.831783	835.518308	-224.696490	-78.491101	82.920526	-422.604968	-102.349768	81.298001	-23.958904	
2	0.0100	402.754470	1289.857172	-21.898326	419.385980	1293.842341	-370.453588	403.283487	1355.680734	-196.986393	414.136330	1214.030874	-192.825484	494.754653	1050.372313	45.203145	644.044586	877.923342	-4.555647	510.325206	1044.452584	-441.255828	660.374151	883.334586	-368.703025	-90.968186	1111.459721	-218.625064	84.252385	1104.212270	-364.486694	85.973311	1117.422611	-68.392434	99.894720	1013.033595	-332.687739	71.621064	1034.506987	-74.494343	-44.974522	1156.960630	-161.527888	-31.094896	1158.061148	-270.512271	-45.303604	1025.053361	-17.791760	-26.666377	986.746383	-409.475410	60.165527	926.368250	2.482739	147.721306	913.572677	-6.835788	213.910075	859.288494	-8.928475	160.825375	947.569001	-15.010697	315.442817	810.082998	-25.680190	312.320324	801.566907	-143.605259	260.967160	707.976232	-3.429367	263.118862	619.592551	-17.096778	221.741962	544.306483	-26.357928	294.019201	616.542613	-40.724315	197.514075	443.475804	-46.985088	219.857650	466.358481	-125.139372	148.985692	411.816854	-94.959153	389.671587	426.856352	-80.635827	310.229186	388.648714	-21.375702	42.673327	874.211659	-423.930833	115.770841	828.939740	-411.756227	141.098910	853.566046	-402.234800	157.160507	750.593430	-406.447650	226.344908	664.506427	-386.951342	226.081175	658.685470	-267.581201	-21.044529	383.342442	-379.939346	-82.938482	385.308357	-338.868855	34.785054	252.065616	-397.741737	135.602229	583.126290	-415.612313	108.324751	500.995539	-400.374306	39.617163	443.376692	-396.992534	131.332796	487.510576	-373.242920	116.610598	230.788604	-338.250487	-204.811322	835.483526	-224.678588	-78.440959	82.989830	-422.599222	-102.220237	81.185805	-23.931903	
3	0.0150	402.709604	1289.835668	-21.879538	419.380563	1293.841964	-370.459427	403.261222	1355.679278	-196.989923	414.100505	1214.019072	-192.834032	494.728563	1050.354427	45.213517	644.033164	877.937917	-4.571889	510.367283	1044.468840	-441.237487	660.389106	883.335627	-368.737880	-90.994749	1111.449224	-218.679790	84.238118	1104.243701	-364.517390	85.921667	1117.405756	-68.396444	99.889273	1013.075715	-332.720945	71.580589	1034.427733	-74.552893	-45.034723	1156.972959	-161.555646	-31.105466	1158.061732	-270.565297	-45.362432	1024.989437	-17.857026	-26.639964	986.720157	-409.521715	60.084894	926.215982	2.416429	147.639680	913.332081	-6.877539	213.779117	858.981615	-9.019287	160.759438	947.349991	-15.043575	315.299343	809.839108	-25.755228	312.189092	801.315880	-143.624919	260.866746	707.632817	-3.439639	262.966511	619.332085	-17.102492	221.658064	543.987987	-26.385425	293.905934	616.325564	-40.717203	197.493524	443.099161	-46.995673	219.821349	466.033858	-125.157354	149.061218	411.640153	-95.031994	389.672985	426.745477	-80.637905	310.272149	388.446192	-21.378067	42.733083	874.221891	-423.980830	115.850361	828.939699	-411.779496	141.173555	853.574988	-402.274137	157.257027	750.616426	-406.465690	226.440532	664.591481	-387.019681	226.149236	658.736370	-267.624490	-21.046925	383.533966	-379.934072	-82.962211	385.520758	-338.895072	34.723760	252.257253	-397.758982	135.660704	583.196432	-415.639826	108.349677	501.105015	-400.383008	39.625707	443.507441	-397.012773	131.364522	487.600963	-373.261413	116.519057	230.947402	-338.276374	-204.827823	835.527413	-224.712071	-78.446701	82.984365	-422.590648	-102.339312	81.295161	-23.960818	
4	0.0200	402.646774	1289.807530	-21.864584	419.354789	1293.841592	-370.470199	403.221624	1355.660885	-197.004239	414.070969	1214.005211	-192.845090	494.668175	1050.330057	45.230788	644.008673	877.914108	-4.599804	510.375932	1044.506087	-441.235366	660.374057	883.334336	-368.703076	-91.040123	1111.441265	-218.726811	84.210790	1104.262413	-364.549489	85.791466	1117.623830	-68.263512	99.997284	1013.287481	-333.019060	71.519907	1034.412594	-74.589269	-45.077281	1156.947627	-161.619439	-30.789341	1157.724638	-270.800398	-45.423852	1024.930988	-17.914970	-26.616655	986.670294	-409.550780	59.856473	925.755141	1.753693	147.213532	913.015140	-7.074920	213.668291	858.667756	-9.097525	160.771698	946.981341	-15.178431	315.144323	809.616180	-25.817872	312.071500	801.032899	-143.614891	260.754039	707.404624	-3.475730	262.980343	619.152012	-17.492353	221.572318	543.684978	-26.356628	293.735184	616.180343	-40.693712	197.460354	442.761327	-46.987193	219.109212	464.388845	-125.234377	149.011071	411.266257	-94.992514	389.657018	426.632380	-80.646057	310.292796	388.233859	-21.381935	42.791100	874.202819	-424.019456	115.920144	828.961747	-411.805803	141.247621	853.781205	-402.517617	157.341059	750.647916	-406.515777	226.550870	664.636818	-387.067417	225.971113	658.980252	-268.016407	-21.083292	383.714573	-379.949389	-82.987292	385.729562	-338.881965	34.658206	252.458623	-397.774706	135.694255	583.294333	-415.689149	107.834123	500.110917	-400.863546	39.487111	443.859281	-396.890714	131.369847	487.675448	-373.268641	116.438240	231.143784	-338.296655	-204.839256	835.518007	-224.707033	-78.460595	82.946874	-422.582960	-102.352576	81.282082	-23.963897	
5	0.0250	402.590321	1289.743564	-21.869023	419.377821	1293.742509	-370.308397	403.154526	1355.642397	-196.953131	414.001052	1213.904340	-192.588159	494.673842	1050.380468	45.211157	643.552822	876.467544	-4.890555	510.188997	1043.792195	-440.951267	660.293452	883.177046	-368.652204	-91.023960	1110.893633	-218.963977	84.511089	1103.541537	-365.078552	85.742999	1117.589248	-68.267103	99.850051	1012.360210	-332.918995	71.432763	1034.377278	-74.693200	-45.026339	1157.264912	-162.134487	-30.677799	1157.668587	-270.801888	-45.359276	1025.125342	-17.615417	-26.567787	986.221249	-409.841140	60.007382	925.926249	2.070208	147.250548	912.879462	-7.101450	213.613183	858.482851	-9.217614	160.882695	947.095075	-15.092669	315.136614	809.729253	-25.564457	311.930083	800.790674	-143.466373	260.762061	707.237604	-3.399521	263.004171	618.922508	-17.395455	221.600644	543.505680	-26.264932	293.547736	615.851231	-40.545317	197.465558	442.532277	-46.949922	219.714656	464.653307	-125.144679	148.885500	411.030382	-94.719127	389.652868	426.467637	-80.725501	310.361281	388.408562	-21.014815	42.750043	873.575154	-424.087526	115.696693	828.120122	-411.591924	140.951501	852.880436	-402.304921	157.264262	749.846421	-406.434323	226.296083	663.683938	-386.670032	226.131472	659.045137	-267.890928	-21.343762	383.238187	-379.962002	-83.276586	385.323221	-338.890047	34.297558	251.729941	-397.805668	135.770963	582.634217	-415.742517	107.861709	500.087465	-400.761477	39.480547	443.053000	-396.859577	131.515025	488.101367	-373.648963	115.954872	230.200621	-337.826352	-205.107672	834.688612	-224.542368	-78.582882	81.604577	-423.470183	-102.741175	80.564826	-24.241210	
6	0.0300	402.542144	1289.723598	-21.857613	419.370883	1293.747151	-370.253962	403.130165	1355.626486	-196.935951	414.015536	1213.893927	-192.542100	494.659393	1050.362360	45.235601	643.477339	876.298872	-5.101672	510.202495	1043.758583	-440.929508	660.314293	883.220077	-368.636406	-91.015245	1110.810536	-219.066370	84.548364	1103.441487	-365.136180	85.705933	1117.545635	-68.292839	99.763126	1012.294068	-332.908287	71.408401	1034.360891	-74.733203	-45.020944	1157.291467	-162.228576	-31.169818	1158.134319	-270.496027	-45.401263	1025.118449	-17.630551	-26.568253	986.125368	-409.882667	59.970877	925.828076	2.050847	147.204432	912.692649	-7.123745	213.507765	858.287981	-9.283048	160.859226	946.932767	-15.090718	315.019715	809.539299	-25.607496	311.530558	800.694968	-143.588669	260.657790	706.998251	-3.406075	262.958300	618.734929	-17.385738	221.578533	543.307681	-26.260342	293.516329	615.574390	-40.523944	197.548067	442.179713	-46.977674	219.866034	464.495339	-125.153726	148.215170	411.210288	-93.910366	389.667993	426.333143	-80.702187	310.217443	388.273702	-20.918391	42.789369	873.452422	-424.072917	115.727784	828.027214	-411.555373	140.994533	852.820605	-402.315180	157.313552	749.761834	-406.384752	226.349681	663.650445	-386.660808	226.161446	659.074505	-267.902589	-21.380502	383.358653	-379.959623	-83.305138	385.448059	-338.879111	34.159823	251.740951	-397.748927	135.783388	582.625828	-415.713769	107.881309	500.206253	-400.721381	39.454436	443.061445	-396.818112	131.509526	488.130490	-373.599409	115.793516	230.216632	-337.710486	-205.171938	834.696891	-224.588418	-78.494871	81.614759	-423.497454	-102.739227	80.539066	-24.251422	
